Coordinates
version=1
nRows=14
nColumns=40
inDegrees=yes

Units are S.I. units (second, meters, Newtons, ...)
Angles are in degrees.

endheader
time	pelvis_tilt	pelvis_list	pelvis_rotation	pelvis_tx	pelvis_ty	pelvis_tz	hip_flexion_r	hip_adduction_r	hip_rotation_r	knee_angle_r	knee_angle_r_beta	ankle_angle_r	subtalar_angle_r	mtp_angle_r	hip_flexion_l	hip_adduction_l	hip_rotation_l	knee_angle_l	knee_angle_l_beta	ankle_angle_l	subtalar_angle_l	mtp_angle_l	lumbar_extension	lumbar_bending	lumbar_rotation	arm_flex_r	arm_add_r	arm_rot_r	elbow_flex_r	pro_sup_r	wrist_flex_r	wrist_dev_r	arm_flex_l	arm_add_l	arm_rot_l	elbow_flex_l	pro_sup_l	wrist_flex_l	wrist_dev_l
     42.80500000	     -5.63904725	     -6.39478126	      2.13275626	      1.05391935	      0.93167861	      0.52278274	     11.75734819	      5.45043256	    -16.93229601	     14.73111188	     14.73111188	     10.42826103	      8.69696423	     -1.40301594	     37.08942643	    -14.88834371	      2.15823688	     55.38597115	     55.38597115	      7.49207200	    -16.06246882	      8.26399843	    -12.58824051	      7.89295323	      3.75881430	     23.23937726	    -21.27740305	      1.43616223	     62.84550185	     44.80213131	      0.00000000	      0.00000000	     -4.68191510	    -10.93862157	      3.41604217	     28.97655201	     46.67881135	      0.00000000	      0.00000000
     42.81685714	     -5.66696685	     -6.43318733	      2.28564371	      1.05241979	      0.93169937	      0.52277082	     11.12041488	      5.56772521	    -16.96864880	     14.36016383	     14.36016383	     10.68095425	      8.80150878	     -1.42961363	     37.71974798	    -14.71668474	      2.11567610	     52.25204387	     52.25204387	      7.47008431	    -15.89222754	      8.77484732	    -12.66412283	      7.93644691	      3.86089227	     24.52778673	    -21.20334837	      1.44196801	     64.05790253	     44.77336143	      0.00000000	      0.00000000	     -6.04899341	    -10.99185500	      3.46735116	     28.49510443	     46.63627885	      0.00000000	      0.00000000
     42.82871429	     -5.71300893	     -6.53693009	      2.46900854	      1.05096592	      0.93157265	      0.52249403	     10.44607322	      5.73950322	    -17.10978122	     13.88860334	     13.88860334	     10.92499531	      9.06588635	     -1.47520263	     38.24402007	    -14.52959264	      2.13073454	     48.92121557	     48.92121557	      7.48002424	    -15.61638953	      9.27017585	    -12.71925113	      8.09229336	      3.82497778	     25.77315297	    -21.08797170	      1.63098836	     65.71689551	     44.72384624	      0.00000000	      0.00000000	     -7.50320759	    -11.00700165	      3.52822619	     28.17393293	     46.58853668	      0.00000000	      0.00000000
     42.84057143	     -5.72824421	     -6.66909230	      2.68038697	      1.04954871	      0.93141451	      0.52196948	      9.65184679	      5.94067668	    -17.35632663	     13.25399822	     13.25399822	     11.12301479	      9.57248864	     -1.53574408	     38.60865627	    -14.29276037	      2.22079193	     45.43574575	     45.43574575	      7.47636183	    -15.22940354	      9.72485442	    -12.84662473	      8.34122833	      3.65158312	     26.89495277	    -21.01564986	      2.15039534	     68.16933965	     44.64125801	      0.00000000	      0.00000000	     -9.09033444	    -10.98925050	      3.59846105	     28.21992651	     46.52938260	      0.00000000	      0.00000000
     42.85242857	     -5.84541136	     -6.80107355	      2.83711865	      1.04822910	      0.93098855	      0.52141920	      9.00718996	      6.12602305	    -17.63673433	     12.72012084	     12.72012084	     11.34854197	     10.02942832	     -1.71873145	     38.94039091	    -14.12566214	      2.09564050	     41.85902626	     41.85902626	      7.46643661	    -14.53377550	     10.05528681	    -12.79495093	      8.51872536	      3.92467096	     27.54190772	    -21.49139626	      2.88147722	     70.96923117	     44.55711312	      0.00000000	      0.00000000	    -10.58123652	    -11.03129593	      3.70782857	     28.94958484	     46.44902614	      0.00000000	      0.00000000
     42.86428571	     -5.89847808	     -6.93222147	      2.98636075	      1.04698509	      0.93061569	      0.52072822	      8.22345276	      6.35144522	    -17.76545925	     12.05348565	     12.05348565	     11.55701931	     10.39606578	     -1.74816031	     39.06582016	    -13.90385294	      2.04518430	     38.23658183	     38.23658183	      7.54340579	    -13.70279106	     10.60323082	    -12.82191217	      8.70271959	      3.89357552	     28.63989891	    -21.17506102	      2.93318214	     72.76886118	     44.51234481	      0.00000000	      0.00000000	    -11.89453746	    -10.94095808	      3.82527046	     28.80934460	     46.39644681	      0.00000000	      0.00000000
     42.87614286	     -5.95041724	     -7.04342284	      3.12439857	      1.04595049	      0.93008373	      0.51985035	      7.33510799	      6.54964023	    -18.03873407	     11.23687786	     11.23687786	     11.77434184	     11.08282350	     -1.86377924	     39.09026444	    -13.68112299	      1.84226872	     34.69994121	     34.69994121	      7.72425374	    -12.66827504	     11.30912403	    -12.82334251	      8.92844367	      4.06241339	     29.17523963	    -21.30777262	      3.32221281	     76.08998619	     44.43508556	      0.00000000	      0.00000000	    -13.39617709	    -10.98637011	      3.99018464	     29.66598764	     46.31029923	      0.00000000	      0.00000000
     42.88800000	     -5.97888593	     -7.14448994	      3.23387081	      1.04509022	      0.92947590	      0.51889409	      6.40972369	      6.76342376	    -18.16153695	     10.41546178	     10.41546178	     12.03209579	     11.52103538	     -1.85483463	     38.95303844	    -13.45447765	      1.58970558	     31.25776668	     31.25776668	      7.93412337	    -11.54760077	     12.03275139	    -12.75905571	      9.12437730	      3.93501237	     30.16355114	    -20.73426441	      3.37401274	     78.08243907	     44.38651440	      0.00000000	      0.00000000	    -14.66341020	    -10.83941897	      4.11715897	     29.55773370	     46.26036343	      0.00000000	      0.00000000
     42.89985714	     -6.15617633	     -7.26557943	      3.26648053	      1.04422013	      0.92846466	      0.51796601	      5.76306628	      6.96321762	    -18.18335343	      9.82662451	      9.82662451	     12.36082452	     11.85304674	     -1.90715452	     38.93951624	    -13.26726505	      1.30438588	     28.08919053	     28.08919053	      8.04913803	    -10.36585983	     12.71076112	    -12.53652200	      9.27579826	      4.06810637	     31.07999092	    -20.37991585	      3.42309505	     79.57940634	     44.34609670	      0.00000000	      0.00000000	    -15.71212652	    -10.67422259	      4.16497993	     29.47481788	     46.23131674	      0.00000000	      0.00000000
     42.91171429	     -6.05380788	     -7.38104861	      3.32307451	      1.04388336	      0.92771628	      0.51684487	      4.51965915	      7.22671562	    -18.34818829	      8.75120341	      8.75120341	     12.62851728	     12.74504483	     -1.77789624	     38.65726539	    -13.13587931	      0.83162200	     25.47055080	     25.47055080	      8.71042715	     -8.90441450	     14.43878515	    -12.67751429	      9.50593077	      4.22885160	     31.26518882	    -20.33905679	      3.86614874	     83.97442773	     44.23753535	      0.00000000	      0.00000000	    -17.26015891	    -10.69221612	      4.09379889	     30.81545093	     46.19072080	      0.00000000	      0.00000000
     42.92357143	     -6.07742158	     -7.38788130	      3.30099758	      1.04359465	      0.92663240	      0.51568522	      3.60769930	      7.31998059	    -18.23814852	      8.08178025	      8.08178025	     13.04397257	     13.07151691	     -1.77659411	     38.33368017	    -12.89269094	      0.29286868	     23.02615872	     23.02615872	      8.84326049	     -7.86107937	     15.16165488	    -12.54354042	      9.55882656	      4.10974445	     32.10572914	    -19.50839095	      3.97893191	     85.78423004	     44.19016126	      0.00000000	      0.00000000	    -18.30644881	    -10.47966701	      4.19268290	     30.67322674	     46.15538119	      0.00000000	      0.00000000
     42.93542857	     -6.05144280	     -7.46071276	      3.23081252	      1.04353698	      0.92541414	      0.51453029	      2.60665367	      7.49270886	    -18.11479370	      7.36546679	      7.36546679	     13.45495384	     13.48523374	     -1.71816173	     38.01006093	    -12.76449036	     -0.29072890	     21.15946165	     21.15946165	      9.01118129	     -6.88068154	     15.87178643	    -12.45594516	      9.68910697	      3.99893214	     32.82632077	    -18.74441744	      4.27194200	     88.13726788	     44.12173457	      0.00000000	      0.00000000	    -19.40526035	    -10.27186634	      4.22211350	     30.78690659	     46.12848611	      0.00000000	      0.00000000
     42.94728571	     -6.04619050	     -7.53686867	      3.12738055	      1.04367010	      0.92398539	      0.51326686	      1.67976527	      7.63663884	    -17.89438003	      6.78935814	      6.78935814	     13.93743354	     13.76272186	     -1.60840652	     37.74382234	    -12.66309745	     -0.90708548	     19.87229234	     19.87229234	      9.18500586	     -6.00019966	     16.45651714	    -12.32577111	      9.83788884	      4.03820385	     33.35702267	    -18.20293984	      4.69334361	     90.87995824	     44.04310385	      0.00000000	      0.00000000	    -20.41471781	    -10.06465892	      4.17532737	     31.25576920	     46.11206820	      0.00000000	      0.00000000
     42.95914286	     -6.06994752	     -7.59301095	      2.96698303	      1.04394833	      0.92237747	      0.51204140	      0.87888291	      7.71939558	    -17.57903763	      6.42619960	      6.42619960	     14.51962596	     13.89517878	     -1.48016809	     37.47477511	    -12.57367631	     -1.50332624	     19.02431870	     19.02431870	      9.18918388	     -5.34501963	     16.73588956	    -12.16825463	      9.90805930	      4.19847813	     33.74113097	    -17.76462092	      5.13020356	     93.55629035	     43.97151405	      0.00000000	      0.00000000	    -21.30585737	     -9.91027800	      4.10698558	     31.79579289	     46.10044462	      0.00000000	      0.00000000
